<svg width="91" height="72" viewBox="0 0 91 72" fill="none" xmlns="http://www.w3.org/2000/svg">
<circle cx="33.5" cy="37" r="33" fill="#F9F5F1"/>
<path fill-rule="evenodd" clip-rule="evenodd" d="M52.9993 17.1582C57.5832 17.1582 61.299 20.8742 61.2992 25.458V27.6582H64.9993C65.413 27.6582 65.7586 27.9739 65.7962 28.3857L68.7962 61.3857C68.8165 61.6094 68.7415 61.8312 68.5902 61.9971C68.4386 62.163 68.2241 62.2578 67.9993 62.2578H53.0247C53.0127 62.2582 53.0007 62.258 52.9886 62.2578H31.9993C31.7747 62.2577 31.56 62.163 31.4085 61.9971C31.2574 61.8312 31.1822 61.6092 31.2025 61.3857L34.2025 28.3857C34.2401 27.974 34.5858 27.6584 34.9993 27.6582H38.6995V23.958C38.6997 20.2027 41.7441 17.1584 45.4993 17.1582C49.2548 17.1582 52.299 20.2026 52.2992 23.958V27.6582H59.6995V25.458C59.6993 21.7579 56.6995 18.7578 52.9993 18.7578V17.1582ZM32.8753 60.6582H52.2689L55.1234 29.2578H52.2992V32.958C52.2992 33.3998 51.9412 33.7578 51.4993 33.7578C51.0577 33.7576 50.6995 33.3997 50.6995 32.958V29.2578H40.2992V32.958C40.2992 33.3998 39.9412 33.7578 39.4993 33.7578C39.0577 33.7576 38.6995 33.3997 38.6995 32.958V29.2578H35.7298L32.8753 60.6582ZM53.8753 60.6582H59.6995V51.6582H61.2992V60.6582H67.1234L64.2689 29.2578H56.7298L53.8753 60.6582ZM45.4993 18.7578C42.6277 18.758 40.2993 21.0864 40.2992 23.958V27.6582H50.6995V23.958C50.6993 21.0863 48.3711 18.7578 45.4993 18.7578Z" fill="#7B6B5D"/>
<path d="M78.5726 34.5449H76.973V30.4814H78.5726V34.5449Z" fill="#7B6B5D"/>
<path d="M75.0628 28.5723H70.9993V26.9727H75.0628V28.5723Z" fill="#7B6B5D"/>
<path d="M84.5452 28.5723H80.4818V26.9727H84.5452V28.5723Z" fill="#7B6B5D"/>
<path d="M78.5726 25.0635H76.973V21H78.5726V25.0635Z" fill="#7B6B5D"/>
<path d="M65.2991 16H63.6995V12.4004H65.2991V16Z" fill="#7B6B5D"/>
<path d="M63.599 12.2998H59.9993V10.7002H63.599V12.2998Z" fill="#7B6B5D"/>
<path d="M68.9993 12.2998H65.3997V10.7002H68.9993V12.2998Z" fill="#7B6B5D"/>
<path d="M65.2991 10.5996H63.6995V7H65.2991V10.5996Z" fill="#7B6B5D"/>
</svg>
